# xmcd
#
# Track frame offsets: 
#        150
#        19204
#        40324
#        59899
#        78219
#        99643
#        120721
#        138646
#        155488
#        173171
#        199021
#        217835
#        239581
#        260350
#        282809
#
# Disc length: 4031 seconds
#
# Revision: 0
# Processed by: cddbd v1.5.2PL0 Copyright (c) Steve Scherf et al.
# Submitted via: ExactAudioCopy v0.99pb4
#
DISCID=d90fbd0f
DTITLE=Kanye West and Malik Yusef - G.O.O.D. Morning, G.O.O.D. Night "Da
DTITLE=wn"
DYEAR=2009
DGENRE=Rap
TTITLE0=G.O.O.D. Morning Luv Feat. Opal Staples and Amanda Porshe
TTITLE1=My People Feat. KRS-One and Mreld
TTITLE2=Leader (The Jesus Peace) Feat. Maxamillion, J.V. and Cheryl Lynn
TTITLE2=Toblin
TTITLE3=V.E.R.S.E. Feat. Big Sean and Anna Maria Cardinalli
TTITLE4=By Your Side Feat. Michelle Williams and Brando
TTITLE5=U-N-I Verses Mine Feat. Twista and Chip Znuff
TTITLE6=Promise Land (Extended Version) Feat. Kanye West and Adam Levine
TTITLE7=Not Love Feat. J.V. and Mica
TTITLE8=Thug Angel  Feat. Christopher Denson and Uneq'ka
TTITLE9=G.E.M. Feat. Tony Williams and Phenom
TTITLE10=Freshcooldopefly Feat. Shorty-K and Tassho Pearce
TTITLE11=Just Like Forever Feat. Erika Shevon
TTITLE12=Elevated (So High) Feat. J.V. and Benda
TTITLE13=Breathtaking Feat. Uneq'ka
TTITLE14=Sexuality Feat. Fast Eddie and Lidell Townsend
EXTD=
EXTT0=
EXTT1=
EXTT2=
EXTT3=
EXTT4=
EXTT5=
EXTT6=
EXTT7=
EXTT8=
EXTT9=
EXTT10=
EXTT11=
EXTT12=
EXTT13=
EXTT14=
PLAYORDER=
